<svg width="263" height="370" viewBox="0 0 263 370" fill="none" xmlns="http://www.w3.org/2000/svg">
	<g clip-path="url(#clip0_1_464)">
		<path d="M263 364.676L0 368.057V131.949C0 60.6107 57.7642 -0.612305 129.37 -0.612305H133.736C205.076 -0.612305 263.106 66.2006 263.106 128.755L263 364.676Z" fill="#F8E7D6" />
		<path d="M168.235 111.266C168.235 87.7444 149.166 68.6763 125.644 68.6763C102.121 68.6763 83.0526 87.7444 83.0526 111.266V181.806C83.0526 205.328 102.121 224.396 125.644 224.396C149.166 224.396 168.235 205.328 168.235 181.806V111.266Z" fill="#282828" />
		<path d="M157.055 324.748C154.159 324.754 151.364 323.693 149.202 321.767C147.076 319.873 144.329 318.827 141.482 318.827C138.636 318.827 135.888 319.873 133.763 321.767C131.602 323.696 128.806 324.762 125.91 324.762C123.013 324.762 120.218 323.696 118.057 321.767C115.932 319.873 113.184 318.827 110.338 318.827C107.491 318.827 104.744 319.873 102.618 321.767C100.457 323.696 97.6617 324.762 94.7652 324.762C91.8686 324.762 89.0734 323.696 86.9124 321.767C85.2443 320.286 83.1855 319.316 80.9814 318.972C78.7773 318.629 76.521 318.926 74.4812 319.829C71.7849 321.08 68.8553 321.75 65.8831 321.793H41.7126V308.591H209.947V321.793H185.777C182.805 321.75 179.875 321.08 177.179 319.829C175.139 318.926 172.883 318.629 170.679 318.972C168.475 319.316 166.416 320.286 164.748 321.767C162.586 323.693 159.79 324.754 156.895 324.748H157.055Z" fill="#262626" />
		<path d="M141.349 348.705C138.364 348.706 135.483 347.606 133.257 345.617C131.179 343.765 128.493 342.741 125.71 342.741C122.927 342.741 120.241 343.765 118.164 345.617C115.94 347.6 113.064 348.696 110.085 348.696C107.105 348.696 104.229 347.6 102.006 345.617C99.9247 343.762 97.2334 342.739 94.4457 342.742V341.741C97.4681 341.739 100.386 342.848 102.645 344.856C104.684 346.678 107.323 347.685 110.058 347.685C112.793 347.685 115.432 346.678 117.472 344.856C119.733 342.843 122.656 341.73 125.684 341.73C128.712 341.73 131.634 342.843 133.896 344.856C135.935 346.678 138.574 347.685 141.309 347.685C144.044 347.685 146.683 346.678 148.723 344.856C150.981 342.848 153.899 341.739 156.922 341.741V342.742C154.134 342.739 151.443 343.762 149.362 345.617C147.144 347.603 144.273 348.702 141.296 348.705H141.349Z" fill="#262626" />
		<path d="M126.378 224.662H125.378V309.842H126.378V224.662Z" fill="#262626" />
		<path d="M208.696 177.813L203.266 163.199C195.493 169.561 197.17 177.733 202.199 186.517C205.925 190.537 207.629 185.548 208.72 177.813" fill="#ECC1B8" />
		<path d="M204.703 188.46C204.159 188.398 203.633 188.226 203.157 187.954C202.681 187.682 202.265 187.316 201.935 186.879C198.022 180.065 193.976 170.269 203.053 162.816L203.593 162.371L209.317 177.757L209.301 177.882C208.364 184.643 207.169 187.758 205.308 188.343C205.11 188.405 204.903 188.437 204.696 188.437L204.703 188.46ZM203.157 164.051C197.114 169.375 197.008 176.242 202.742 186.278C203.604 187.188 204.397 187.598 205.015 187.404C206.37 186.975 207.48 183.757 208.316 177.874L203.157 164.051Z" fill="#282828" />
		<path d="M202.308 187.129L203.926 181.3C203.426 183.618 202.891 185.639 202.435 187.183C206.727 188.632 211.136 189.709 215.612 190.403C216.151 189.067 216.425 187.639 216.419 186.198C216.26 174.805 212.026 148.665 212.026 148.665C212.026 148.665 202.044 148.824 204.493 158.434C205.984 165.978 205.798 173.757 203.947 181.22" fill="#ECC1B8" />
		<path d="M216.15 190.856L215.748 190.79C211.243 190.094 206.808 189.007 202.491 187.542L202.042 187.386L202.174 186.928L202.178 186.92L202.045 186.885L203.664 181.056L204.633 181.294C204.234 183.141 203.778 184.967 203.27 186.751C207.264 188.075 211.359 189.072 215.515 189.732C215.937 188.563 216.149 187.328 216.143 186.085C215.999 175.677 212.39 152.546 211.831 149.085C209.594 149.215 207.494 150.207 205.975 151.854C205.365 152.783 204.978 153.841 204.845 154.944C204.711 156.048 204.835 157.167 205.205 158.215C206.695 165.83 206.51 173.678 204.665 181.214L203.688 181.003C205.503 173.616 205.689 165.923 204.234 158.457C203.821 157.264 203.692 155.991 203.856 154.739C204.02 153.487 204.473 152.29 205.179 151.243C206.083 150.261 207.176 149.472 208.393 148.923C209.61 148.374 210.925 148.077 212.259 148.049L212.693 148.041L212.76 148.47C212.803 148.731 217.019 174.822 217.152 186.002C217.156 187.507 216.871 188.998 216.311 190.394L216.15 190.856Z" fill="#282828" />
		<path d="M188.466 176.216H143.213V191.708H188.466V176.216Z" fill="#C2D8CC" />
		<path d="M189.264 192.187H142.946V175.71H189.264V192.187ZM144.011 191.186H188.466V176.706H144.011V191.186Z" fill="#282828" />
		<path d="M123.248 133.626H208.696V142.09C208.696 153.386 204.209 164.219 196.222 172.206C188.234 180.193 177.401 184.68 166.105 184.68C154.809 184.68 143.976 180.193 135.989 172.206C128.001 164.219 123.514 153.386 123.514 142.09V133.626H123.248Z" fill="#C2D8CC" />
		<path d="M166.105 185.266C154.668 185.266 143.7 180.723 135.612 172.636C127.525 164.549 122.982 153.581 122.982 142.144V133.173H209.229V142.144C209.229 147.807 208.113 153.414 205.946 158.646C203.779 163.878 200.603 168.632 196.598 172.636C192.594 176.64 187.84 179.817 182.608 181.984C177.376 184.151 171.768 185.266 166.105 185.266ZM124.047 134.158V142.117C124.047 153.307 128.492 164.038 136.404 171.951C144.317 179.863 155.048 184.308 166.238 184.308C177.428 184.308 188.16 179.863 196.073 171.951C203.985 164.038 208.43 153.307 208.43 142.117V134.158H124.047Z" fill="#282828" />
		<path d="M166.105 133.626L209.495 92.6329C211.352 92.4956 213.207 92.9261 214.814 93.8674C216.421 94.8087 217.704 96.2163 218.492 97.9034L198.687 133.572L166.105 133.626Z" fill="#204844" />
		<path d="M198.847 134.158H164.774L209.229 92.3669L209.436 92.3708C211.387 92.2425 213.332 92.7046 215.018 93.6968C216.703 94.689 218.051 96.1655 218.886 97.9342L218.991 98.1607L218.87 98.3832L198.847 134.158ZM167.436 133.157H198.315L217.853 98.0207C217.089 96.513 215.901 95.2615 214.435 94.4197C212.969 93.578 211.289 93.1828 209.601 93.2825L167.436 133.157Z" fill="#282828" />
		<path d="M146.673 80.9207C153.583 80.9207 159.184 75.3195 159.184 68.41C159.184 61.5004 153.583 55.8992 146.673 55.8992C139.763 55.8992 134.162 61.5004 134.162 68.41C134.162 75.3195 139.763 80.9207 146.673 80.9207Z" fill="#D59264" />
		<path d="M146.673 81.4533C144.099 81.4533 141.582 80.6899 139.441 79.2596C137.301 77.8293 135.632 75.7964 134.647 73.4179C133.662 71.0395 133.404 68.4223 133.906 65.8973C134.409 63.3724 135.648 61.053 137.469 59.2326C139.289 57.4122 141.609 56.1725 144.134 55.6703C146.659 55.168 149.276 55.4258 151.654 56.411C154.033 57.3962 156.066 59.0646 157.496 61.2051C158.927 63.3457 159.69 65.8623 159.69 68.4367C159.683 71.8868 158.309 75.1935 155.87 77.633C153.43 80.0726 150.123 81.4462 146.673 81.4533ZM146.673 56.4317C144.299 56.4317 141.977 57.1358 140.003 58.4549C138.029 59.774 136.49 61.649 135.582 63.8426C134.673 66.0362 134.435 68.45 134.898 70.7788C135.362 73.1075 136.505 75.2466 138.184 76.9256C139.863 78.6045 142.002 79.7479 144.331 80.2111C146.66 80.6743 149.074 80.4366 151.267 79.5279C153.461 78.6193 155.336 77.0806 156.655 75.1064C157.974 73.1321 158.678 70.8111 158.678 68.4367C158.671 65.2549 157.404 62.2055 155.154 59.9556C152.904 57.7058 149.855 56.4387 146.673 56.4317Z" fill="#282828" />
		<path d="M182.077 82.5178C182.996 84.7108 183.242 87.1278 182.784 89.461C182.325 91.7942 181.182 93.9381 179.5 95.6196C177.819 97.301 175.675 98.4439 173.341 98.9028C171.008 99.3617 168.591 99.1157 166.398 98.1962C167.158 100.009 168.352 101.607 169.876 102.849C171.399 104.091 173.205 104.939 175.134 105.318C177.062 105.697 179.054 105.596 180.935 105.023C182.815 104.451 184.525 103.424 185.915 102.035C187.305 100.645 188.332 98.9343 188.904 97.0541C189.477 95.1738 189.578 93.1816 189.199 91.253C188.819 89.3245 187.971 87.5189 186.729 85.9955C185.487 84.4722 183.89 83.2778 182.077 82.5178Z" fill="#F2C68A" />
		<path d="M177.285 105.942C174.826 105.942 172.421 105.215 170.375 103.85C168.329 102.486 166.732 100.547 165.786 98.2763L165.312 97.1503L166.441 97.6241C167.839 98.2137 169.342 98.5152 170.859 98.5106C172.749 98.5116 174.61 98.0459 176.277 97.1546C177.943 96.2634 179.364 94.9742 180.412 93.4018C181.461 91.8293 182.104 90.0223 182.286 88.1412C182.468 86.2601 182.182 84.3632 181.454 82.6192L180.986 81.4985L182.106 81.967C184.756 83.087 186.938 85.0879 188.283 87.6313C189.628 90.1747 190.053 93.1045 189.486 95.9252C188.919 98.7458 187.396 101.284 185.173 103.111C182.951 104.938 180.165 105.941 177.288 105.95L177.285 105.942ZM167.223 98.9684C168.079 100.532 169.287 101.874 170.751 102.889C172.216 103.904 173.896 104.564 175.66 104.817C177.424 105.07 179.223 104.908 180.913 104.345C182.604 103.782 184.14 102.833 185.4 101.573C186.66 100.313 187.609 98.7767 188.173 97.0862C188.736 95.3956 188.897 93.5971 188.645 91.8332C188.392 90.0693 187.732 88.3886 186.716 86.9241C185.701 85.4597 184.359 84.2519 182.796 83.3964C183.452 85.5601 183.509 87.8614 182.96 90.0548C182.411 92.2482 181.276 94.2512 179.677 95.85C178.078 97.4489 176.075 98.5835 173.882 99.1327C171.688 99.6819 169.387 99.6251 167.223 98.9684Z" fill="#282828" />
		<path d="M119.521 160.244C114.697 160.167 110.029 161.953 106.489 165.23C102.949 168.508 100.809 173.024 100.515 177.839C100.272 182.333 101.664 186.763 104.434 190.31C107.203 193.858 111.163 196.283 115.582 197.138C118.22 197.652 120.693 198.181 122.582 198.674L178.483 213.367L219.477 196.731L239.069 152.011C236.758 152.012 234.48 152.56 232.421 153.61C230.362 154.66 228.581 156.183 227.223 158.054L209.388 182.649L180.906 191.034C180.034 191.291 179.119 191.372 178.216 191.274C177.312 191.176 176.436 190.9 175.64 190.462C174.843 190.024 174.141 189.433 173.574 188.722C173.006 188.012 172.585 187.196 172.334 186.323C172.057 185.363 171.992 184.354 172.143 183.366C172.295 182.378 172.659 181.435 173.211 180.602C173.763 179.769 174.489 179.066 175.34 178.542C176.191 178.017 177.145 177.684 178.137 177.565L196.824 174.85C197.555 174.742 198.249 174.459 198.848 174.026C199.447 173.592 199.932 173.021 200.264 172.361C200.595 171.7 200.763 170.97 200.753 170.231C200.742 169.492 200.555 168.767 200.205 168.116C199.827 167.432 199.297 166.845 198.655 166.401C198.013 165.957 197.277 165.667 196.505 165.555C189.264 164.461 178.403 166.188 171.669 165.85C160.116 165.27 152.45 164.07 141.056 168.491C140.335 168.777 139.551 168.872 138.782 168.767C138.013 168.663 137.284 168.362 136.664 167.895C133.204 165.243 125.777 160.202 119.574 160.175L119.521 160.244Z" fill="#ECC1B8" />
		<path d="M178.616 213.748L178.452 213.705L122.552 199.012C120.883 198.57 118.612 198.069 115.577 197.481C110.969 196.492 106.888 193.834 104.12 190.02C101.352 186.205 100.091 181.502 100.579 176.813C101.068 172.125 103.272 167.783 106.767 164.621C110.263 161.459 114.803 159.7 119.517 159.683H119.622C125.878 159.714 133.198 164.58 137.005 167.509C137.556 167.927 138.206 168.195 138.892 168.288C139.577 168.382 140.275 168.296 140.918 168.041C150.98 164.128 158.274 164.58 167.511 165.139C168.866 165.221 170.253 165.303 171.717 165.378C174.985 165.445 178.254 165.348 181.513 165.088C186.532 164.602 191.586 164.6 196.606 165.084C197.453 165.207 198.26 165.527 198.962 166.016C199.665 166.506 200.243 167.153 200.652 167.905C201.048 168.625 201.263 169.43 201.279 170.251C201.296 171.072 201.113 171.885 200.747 172.621C200.38 173.356 199.841 173.991 199.176 174.473C198.51 174.954 197.738 175.267 196.925 175.385L178.238 178.1C177.348 178.193 176.488 178.472 175.712 178.918C174.936 179.364 174.261 179.967 173.732 180.689C173.203 181.411 172.831 182.235 172.64 183.11C172.449 183.984 172.443 184.889 172.622 185.765C172.801 186.642 173.162 187.472 173.681 188.201C174.2 188.93 174.866 189.542 175.636 189.999C176.406 190.455 177.263 190.745 178.152 190.851C179.04 190.956 179.941 190.874 180.797 190.611L209.279 182.279L227.008 157.817C228.412 155.884 230.253 154.309 232.381 153.222C234.509 152.135 236.863 151.566 239.253 151.561H240.019L239.711 152.261L220.039 196.981L219.851 197.059L178.616 213.748ZM119.521 160.511C114.92 160.319 110.419 161.889 106.935 164.9C103.45 167.91 101.244 172.136 100.766 176.716C100.288 181.295 101.573 185.886 104.36 189.551C107.147 193.217 111.227 195.682 115.768 196.446C118.803 197.04 121.118 197.548 122.795 197.993L178.43 212.633L219.158 196.129L238.35 152.475C236.25 152.594 234.203 153.179 232.357 154.188C230.511 155.196 228.912 156.602 227.676 158.304L209.735 183.033L209.571 183.084L181.088 191.469C180.108 191.749 179.082 191.824 178.072 191.689C177.062 191.554 176.092 191.212 175.22 190.684C174.349 190.156 173.596 189.455 173.008 188.623C172.42 187.791 172.011 186.846 171.805 185.849C171.599 184.851 171.602 183.822 171.812 182.825C172.023 181.828 172.437 180.886 173.028 180.057C173.62 179.227 174.376 178.529 175.25 178.006C176.124 177.482 177.096 177.145 178.106 177.015L196.767 174.3C197.423 174.21 198.048 173.961 198.587 173.576C199.126 173.19 199.562 172.678 199.859 172.086C200.155 171.493 200.302 170.837 200.288 170.174C200.273 169.512 200.097 168.863 199.775 168.284C199.437 167.668 198.961 167.138 198.383 166.738C197.805 166.338 197.143 166.078 196.447 165.978C191.498 165.502 186.515 165.504 181.567 165.986C178.273 166.249 174.968 166.347 171.664 166.279C170.195 166.205 168.79 166.119 167.432 166.041C157.955 165.471 151.088 165.069 141.238 168.889C140.438 169.207 139.569 169.313 138.716 169.197C137.862 169.081 137.053 168.746 136.367 168.226C132.667 165.405 125.533 160.64 119.57 160.613L119.521 160.511Z" fill="#282828" />
		<path d="M169.033 83.6094C170.518 83.6094 171.722 82.4057 171.722 80.9209C171.722 79.4361 170.518 78.2324 169.033 78.2324C167.549 78.2324 166.345 79.4361 166.345 80.9209C166.345 82.4057 167.549 83.6094 169.033 83.6094Z" fill="#FEE6D4" />
		<path d="M169.033 84.115C168.407 84.115 167.794 83.9293 167.274 83.5812C166.753 83.2331 166.347 82.7384 166.107 82.1596C165.867 81.5808 165.804 80.9439 165.927 80.3294C166.049 79.715 166.351 79.1506 166.794 78.7076C167.237 78.2646 167.801 77.9629 168.415 77.8407C169.03 77.7184 169.667 77.7812 170.246 78.0209C170.824 78.2607 171.319 78.6667 171.667 79.1876C172.015 79.7085 172.201 80.3209 172.201 80.9474C172.194 81.7854 171.858 82.587 171.266 83.1796C170.673 83.7721 169.871 84.1081 169.033 84.115ZM169.033 78.7647C168.603 78.7652 168.182 78.8933 167.825 79.1328C167.467 79.3722 167.188 79.7123 167.024 80.1101C166.859 80.5078 166.816 80.9454 166.901 81.3675C166.985 81.7897 167.192 82.1774 167.496 82.4818C167.801 82.7861 168.189 82.9934 168.611 83.0775C169.033 83.1616 169.47 83.1187 169.868 82.9543C170.266 82.7898 170.606 82.5111 170.845 82.1535C171.085 81.7958 171.213 81.3752 171.214 80.9448C171.214 80.3666 170.984 79.8121 170.575 79.4032C170.166 78.9944 169.612 78.7647 169.033 78.7647Z" fill="#282828" />
		<path d="M149.069 127.53C150.554 127.53 151.757 126.326 151.757 124.842C151.757 123.357 150.554 122.153 149.069 122.153C147.584 122.153 146.38 123.357 146.38 124.842C146.38 126.326 147.584 127.53 149.069 127.53Z" fill="#FEE6D4" />
		<path d="M149.069 128.036C148.442 128.036 147.83 127.85 147.309 127.502C146.788 127.154 146.382 126.659 146.142 126.081C145.902 125.502 145.84 124.865 145.962 124.25C146.084 123.636 146.386 123.071 146.829 122.628C147.272 122.185 147.836 121.884 148.451 121.762C149.065 121.639 149.702 121.702 150.281 121.942C150.86 122.182 151.355 122.588 151.703 123.108C152.051 123.629 152.237 124.242 152.237 124.868C152.23 125.706 151.894 126.508 151.301 127.1C150.708 127.693 149.907 128.029 149.069 128.036ZM149.069 122.686C148.638 122.685 148.217 122.812 147.858 123.051C147.5 123.29 147.22 123.631 147.055 124.028C146.89 124.426 146.846 124.865 146.93 125.287C147.014 125.71 147.222 126.098 147.526 126.403C147.831 126.707 148.219 126.915 148.642 126.999C149.065 127.083 149.503 127.039 149.901 126.874C150.299 126.709 150.639 126.43 150.878 126.071C151.117 125.713 151.244 125.291 151.244 124.86C151.242 124.284 151.013 123.732 150.605 123.324C150.198 122.917 149.645 122.687 149.069 122.686Z" fill="#282828" />
		<path d="M178.616 64.4171C177.838 64.1657 177.13 63.733 176.552 63.1545C175.973 62.576 175.54 61.8683 175.289 61.0898C175.272 61.0387 175.239 60.9943 175.195 60.9629C175.151 60.9314 175.098 60.9146 175.044 60.9146C174.99 60.9146 174.937 60.9314 174.894 60.9629C174.85 60.9943 174.817 61.0387 174.799 61.0898C174.548 61.8683 174.115 62.576 173.536 63.1545C172.958 63.733 172.25 64.1657 171.472 64.4171C171.421 64.4346 171.376 64.4675 171.345 64.5115C171.313 64.5554 171.297 64.608 171.297 64.662C171.297 64.716 171.313 64.7687 171.345 64.8126C171.376 64.8565 171.421 64.8895 171.472 64.9069C172.25 65.1583 172.958 65.5911 173.536 66.1696C174.115 66.7481 174.548 67.4557 174.799 68.2342C174.817 68.2854 174.85 68.3297 174.894 68.3612C174.937 68.3926 174.99 68.4095 175.044 68.4095C175.098 68.4095 175.151 68.3926 175.195 68.3612C175.239 68.3297 175.272 68.2854 175.289 68.2342C175.54 67.4557 175.973 66.7481 176.552 66.1696C177.13 65.5911 177.838 65.1583 178.616 64.9069C178.668 64.8895 178.712 64.8565 178.743 64.8126C178.775 64.7687 178.792 64.716 178.792 64.662C178.792 64.608 178.775 64.5554 178.743 64.5115C178.712 64.4675 178.668 64.4346 178.616 64.4171Z" fill="#8695C7" />
		<path d="M175.156 68.9425C174.995 68.9433 174.839 68.8928 174.709 68.7985C174.579 68.7042 174.483 68.5709 174.434 68.4181C174.208 67.7139 173.817 67.0738 173.294 66.5507C172.771 66.0277 172.131 65.6367 171.426 65.4102C171.274 65.3606 171.141 65.2641 171.047 65.1345C170.953 65.005 170.903 64.8489 170.903 64.6888C170.903 64.5287 170.953 64.3726 171.047 64.2431C171.141 64.1135 171.274 64.017 171.426 63.9674C172.131 63.7409 172.771 63.3499 173.294 62.8269C173.817 62.3038 174.208 61.6637 174.434 60.9595C174.496 60.8195 174.597 60.7003 174.725 60.6167C174.853 60.5331 175.003 60.4885 175.156 60.4885C175.309 60.4885 175.458 60.5331 175.587 60.6167C175.715 60.7003 175.816 60.8195 175.877 60.9595C176.104 61.6637 176.495 62.3038 177.018 62.8269C177.541 63.3499 178.181 63.7409 178.885 63.9674C179.037 64.017 179.17 64.1135 179.264 64.2431C179.358 64.3726 179.409 64.5287 179.409 64.6888C179.409 64.8489 179.358 65.005 179.264 65.1345C179.17 65.2641 179.037 65.3606 178.885 65.4102C178.181 65.6367 177.541 66.0277 177.018 66.5507C176.495 67.0738 176.104 67.7139 175.877 68.4181C175.829 68.5707 175.733 68.7039 175.604 68.7982C175.475 68.8926 175.319 68.9431 175.158 68.9425H175.156ZM172.334 64.6835C173.586 65.251 174.588 66.2537 175.156 67.5051C175.723 66.2537 176.726 65.251 177.977 64.6835C176.726 64.1159 175.723 63.1133 175.156 61.8619C174.588 63.1133 173.586 64.1159 172.334 64.6835Z" fill="#282828" />
		<path d="M141.349 97.6906C140.571 97.4392 139.863 97.0064 139.284 96.4279C138.706 95.8494 138.273 95.1418 138.022 94.3632C138.004 94.3121 137.971 94.2677 137.927 94.2363C137.884 94.2049 137.831 94.188 137.777 94.188C137.723 94.188 137.67 94.2049 137.626 94.2363C137.582 94.2677 137.549 94.3121 137.532 94.3632C137.281 95.1418 136.848 95.8494 136.269 96.4279C135.691 97.0064 134.983 97.4392 134.205 97.6906C134.153 97.708 134.109 97.741 134.078 97.7849C134.046 97.8288 134.029 97.8815 134.029 97.9355C134.029 97.9895 134.046 98.0421 134.078 98.086C134.109 98.1299 134.153 98.1629 134.205 98.1804C134.983 98.4317 135.691 98.8645 136.269 99.443C136.848 100.022 137.281 100.729 137.532 101.508C137.549 101.559 137.582 101.603 137.626 101.635C137.67 101.666 137.723 101.683 137.777 101.683C137.831 101.683 137.884 101.666 137.927 101.635C137.971 101.603 138.004 101.559 138.022 101.508C138.273 100.729 138.706 100.022 139.284 99.443C139.863 98.8645 140.571 98.4317 141.349 98.1804C141.4 98.1629 141.445 98.1299 141.476 98.086C141.508 98.0421 141.524 97.9895 141.524 97.9355C141.524 97.8815 141.508 97.8288 141.476 97.7849C141.445 97.741 141.4 97.708 141.349 97.6906H141.349Z" fill="#8695C7" />
		<path d="M137.889 101.95C137.728 101.95 137.572 101.9 137.442 101.806C137.312 101.711 137.216 101.578 137.167 101.425C136.941 100.721 136.55 100.081 136.027 99.5579C135.504 99.0349 134.863 98.6439 134.159 98.4174C134.007 98.3678 133.874 98.2713 133.78 98.1417C133.686 98.0121 133.635 97.8561 133.635 97.696C133.635 97.5359 133.686 97.3798 133.78 97.2503C133.874 97.1207 134.007 97.0242 134.159 96.9746C134.863 96.7481 135.504 96.3571 136.027 95.8341C136.55 95.311 136.941 94.6709 137.167 93.9667C137.228 93.8257 137.329 93.7055 137.457 93.6211C137.585 93.5367 137.735 93.4917 137.889 93.4917C138.042 93.4917 138.192 93.5367 138.321 93.6211C138.449 93.7055 138.549 93.8257 138.61 93.9667C138.837 94.6709 139.228 95.311 139.751 95.8341C140.274 96.3571 140.914 96.7481 141.618 96.9746C141.77 97.0242 141.903 97.1207 141.997 97.2503C142.091 97.3798 142.142 97.5359 142.142 97.696C142.142 97.8561 142.091 98.0121 141.997 98.1417C141.903 98.2713 141.77 98.3678 141.618 98.4174C140.914 98.6439 140.274 99.0349 139.751 99.5579C139.228 100.081 138.837 100.721 138.61 101.425C138.562 101.578 138.466 101.711 138.337 101.805C138.207 101.9 138.051 101.95 137.891 101.95H137.889ZM135.067 97.6907C136.318 98.2582 137.321 99.2609 137.889 100.512C138.456 99.2609 139.459 98.2582 140.71 97.6907C139.46 97.1211 138.458 96.119 137.889 94.8691C137.321 96.1204 136.318 97.1231 135.067 97.6907Z" fill="#282828" />
		<path d="M167.17 112.863C166.391 112.612 165.684 112.179 165.105 111.601C164.527 111.022 164.094 110.314 163.843 109.536C163.825 109.485 163.792 109.44 163.748 109.409C163.704 109.377 163.652 109.361 163.598 109.361C163.544 109.361 163.491 109.377 163.447 109.409C163.403 109.44 163.37 109.485 163.353 109.536C163.101 110.314 162.669 111.022 162.09 111.601C161.512 112.179 160.804 112.612 160.025 112.863C159.974 112.881 159.93 112.914 159.898 112.957C159.867 113.001 159.85 113.054 159.85 113.108C159.85 113.162 159.867 113.215 159.898 113.259C159.93 113.303 159.974 113.336 160.025 113.353C160.804 113.604 161.512 114.037 162.09 114.616C162.669 115.194 163.101 115.902 163.353 116.68C163.37 116.731 163.403 116.776 163.447 116.807C163.491 116.839 163.544 116.856 163.598 116.856C163.652 116.856 163.704 116.839 163.748 116.807C163.792 116.776 163.825 116.731 163.843 116.68C164.094 115.902 164.527 115.194 165.105 114.616C165.684 114.037 166.391 113.604 167.17 113.353C167.221 113.336 167.265 113.303 167.297 113.259C167.328 113.215 167.345 113.162 167.345 113.108C167.345 113.054 167.328 113.001 167.297 112.957C167.265 112.914 167.221 112.881 167.17 112.863Z" fill="#8695C7" />
		<path d="M163.71 117.388C163.55 117.389 163.395 117.34 163.265 117.246C163.136 117.153 163.04 117.021 162.991 116.869C162.764 116.165 162.373 115.525 161.85 115.002C161.327 114.479 160.687 114.088 159.983 113.861C159.831 113.812 159.698 113.715 159.604 113.586C159.51 113.456 159.459 113.3 159.459 113.14C159.459 112.98 159.51 112.824 159.604 112.694C159.698 112.565 159.831 112.468 159.983 112.419C160.687 112.192 161.327 111.801 161.85 111.278C162.373 110.755 162.764 110.115 162.991 109.411C163.052 109.271 163.153 109.152 163.281 109.068C163.409 108.984 163.559 108.94 163.712 108.94C163.865 108.94 164.015 108.984 164.143 109.068C164.271 109.152 164.372 109.271 164.434 109.411C164.66 110.115 165.051 110.755 165.574 111.278C166.097 111.801 166.737 112.192 167.442 112.419C167.594 112.468 167.726 112.565 167.821 112.694C167.915 112.824 167.965 112.98 167.965 113.14C167.965 113.3 167.915 113.456 167.821 113.586C167.726 113.715 167.594 113.812 167.442 113.861C166.737 114.088 166.097 114.479 165.574 115.002C165.051 115.525 164.66 116.165 164.434 116.869C164.384 117.022 164.287 117.154 164.156 117.247C164.026 117.341 163.87 117.39 163.71 117.388ZM160.888 113.129C162.139 113.697 163.142 114.7 163.71 115.951C164.277 114.7 165.28 113.697 166.531 113.129C165.28 112.562 164.277 111.559 163.71 110.308C163.142 111.559 162.139 112.562 160.888 113.129Z" fill="#282828" />
	</g>
	<defs>
		<clipPath id="clip0_1_464">
			<rect width="263" height="370" fill="white" />
		</clipPath>
	</defs>
</svg>